<?xml version="1.0" encoding="utf-8"?>
<!-- Generator: Adobe Illustrator 21.1.0, SVG Export Plug-In . SVG Version: 6.00 Build 0)  -->
<svg version="1.1" id="Icons" xmlns="http://www.w3.org/2000/svg" xmlns:xlink="http://www.w3.org/1999/xlink" x="0px" y="0px"
	 viewBox="0 0 48 48" style="enable-background:new 0 0 48 48;" xml:space="preserve">
<style type="text/css">
	.st0{fill:#FFE500;}
	.st1{fill:#EBCB00;}
	.st2{fill:#FFF48C;}
	.st3{opacity:0.15;fill:#45413C;}
	.st4{fill:none;stroke:#45413C;stroke-linecap:round;stroke-linejoin:round;stroke-miterlimit:10;}
	.st5{fill:#FFAA54;}
	.st6{fill:#FFB0CA;stroke:#45413C;stroke-linecap:round;stroke-linejoin:round;stroke-miterlimit:10;}
	.st7{fill:#FF87AF;stroke:#45413C;stroke-linecap:round;stroke-linejoin:round;stroke-miterlimit:10;}
	.st8{fill:#00B8F0;}
	.st9{fill:#4ACFFF;}
	.st10{fill:#FFFFFF;stroke:#45413C;stroke-linecap:round;stroke-linejoin:round;stroke-miterlimit:10;}
	.st11{fill:#45413C;stroke:#45413C;stroke-linecap:round;stroke-linejoin:round;stroke-miterlimit:10;}
	.st12{fill:#009FD9;}
	.st13{fill:none;stroke:#45413C;stroke-linecap:round;stroke-miterlimit:10;}
	.st14{fill:#FFFFFF;stroke:#45413C;stroke-linejoin:round;stroke-miterlimit:10;}
	.st15{fill:#FF6242;}
	.st16{fill:#FF866E;}
	.st17{fill:#656769;}
	.st18{fill:#87898C;}
	.st19{fill:#4AEFF7;stroke:#45413C;stroke-linecap:round;stroke-linejoin:round;stroke-miterlimit:10;}
	.st20{fill:none;stroke:#48CF3E;stroke-linecap:round;stroke-linejoin:round;stroke-miterlimit:10;}
	.st21{fill:none;stroke:#FF4064;stroke-linecap:round;stroke-linejoin:round;stroke-miterlimit:10;}
	.st22{fill:none;stroke:#FFB700;stroke-linecap:round;stroke-linejoin:round;stroke-miterlimit:10;}
	.st23{fill:none;stroke:#00AED9;stroke-linecap:round;stroke-linejoin:round;stroke-miterlimit:10;}
	.st24{fill:#FFFACF;}
	.st25{fill:#45413C;}
	.st26{fill:#FF866E;stroke:#45413C;stroke-linecap:round;stroke-linejoin:round;stroke-miterlimit:10;}
	.st27{fill:#DABFF5;stroke:#45413C;stroke-linejoin:round;stroke-miterlimit:10;}
	.st28{fill:#EDDBFF;}
	.st29{fill:none;stroke:#45413C;stroke-linejoin:round;stroke-miterlimit:10;}
	.st30{fill:#6DD627;}
	.st31{fill:#46B000;}
	.st32{fill:#C8FFA1;}
	.st33{fill:url(#XMLID_91_);}
	.st34{fill:url(#XMLID_92_);}
	.st35{fill:#F0F0F0;stroke:#45413C;stroke-linecap:round;stroke-linejoin:round;stroke-miterlimit:10;}
	.st36{fill:#EBCB00;stroke:#45413C;stroke-linecap:round;stroke-linejoin:round;stroke-miterlimit:10;}
	.st37{fill:#BDBEC0;stroke:#45413C;stroke-linecap:round;stroke-linejoin:round;stroke-miterlimit:10;}
	.st38{fill:#F0F0F0;}
	.st39{fill:#FFFFFF;}
	.st40{fill:url(#XMLID_93_);}
	.st41{fill:url(#XMLID_94_);}
	.st42{fill:#FFE500;stroke:#45413C;stroke-linecap:round;stroke-linejoin:round;stroke-miterlimit:10;}
	.st43{fill:#E04122;}
	.st44{fill:#8CFFE4;stroke:#45413C;stroke-linecap:round;stroke-linejoin:round;stroke-miterlimit:10;}
	.st45{fill:#E5FFF9;}
	.st46{fill:#E0E0E0;}
	.st47{fill:#9CEB60;}
	.st48{fill:#6DD627;stroke:#45413C;stroke-linecap:round;stroke-linejoin:round;stroke-miterlimit:10;}
	.st49{fill:#E8F4FA;}
	.st50{fill:#F0D5A8;}
	.st51{fill:#DEBB7E;}
	.st52{fill:#B89558;}
	.st53{fill:#00B8F0;stroke:#45413C;stroke-linecap:round;stroke-linejoin:round;stroke-miterlimit:10;}
	.st54{fill:#FFFCE5;}
	.st55{fill:#FF87AF;}
	.st56{fill:#4ACFFF;stroke:#45413C;stroke-linecap:round;stroke-linejoin:round;stroke-miterlimit:10;}
	.st57{fill:#E5F8FF;}
	.st58{fill:none;stroke:#45413C;stroke-miterlimit:10;}
	.st59{fill:none;stroke:#FF6242;stroke-linecap:round;stroke-linejoin:round;stroke-miterlimit:10;}
	.st60{fill:#BDBEC0;}
	.st61{fill:#B89558;stroke:#45413C;stroke-linecap:round;stroke-linejoin:round;stroke-miterlimit:10;}
	.st62{fill:#FF6242;stroke:#45413C;stroke-linecap:round;stroke-linejoin:round;stroke-miterlimit:10;}
	.st63{fill:#525252;stroke:#45413C;stroke-linecap:round;stroke-linejoin:round;stroke-miterlimit:10;}
	.st64{fill:#525252;}
	.st65{fill:#00DBA8;}
	.st66{fill:#00AD85;}
	.st67{fill:#BF8DF2;}
	.st68{fill:#DABFF5;}
	.st69{fill:#00F5BC;}
	.st70{fill:#DAEDF7;}
	.st71{fill:#C0DCEB;}
	.st72{fill:#ADC4D9;}
	.st73{fill:#ADC4D9;stroke:#45413C;stroke-linecap:round;stroke-linejoin:round;stroke-miterlimit:10;}
	.st74{fill:#00DFEB;stroke:#45413C;stroke-linecap:round;stroke-linejoin:round;stroke-miterlimit:10;}
	.st75{fill:#627B8C;stroke:#45413C;stroke-linecap:round;stroke-linejoin:round;stroke-miterlimit:10;}
	.st76{fill:#8CA4B8;}
	.st77{fill:#00DBA8;stroke:#45413C;stroke-linecap:round;stroke-linejoin:round;stroke-miterlimit:10;}
	.st78{fill:#FF8A14;}
	.st79{fill:#BF8256;}
	.st80{fill:#DEA47A;}
	.st81{fill:#915E3A;}
	.st82{fill:#FFA694;}
	.st83{fill:#E5FEFF;stroke:#45413C;stroke-linecap:round;stroke-linejoin:round;stroke-miterlimit:10;}
	.st84{fill:#803EC2;stroke:#45413C;stroke-linecap:round;stroke-linejoin:round;stroke-miterlimit:10;}
	.st85{fill:#9F5AE5;}
	.st86{fill:#803EC2;}
</style>
<g id="XMLID_647_">
	<circle id="XMLID_7848_" class="st0" cx="24" cy="21.5" r="20"/>
	<path id="XMLID_7845_" class="st1" d="M24,1.5c-11,0-20,9-20,20s9,20,20,20s20-9,20-20S35,1.5,24,1.5z M24,38.5
		c-10.1,0-18.2-8.2-18.2-18.2C5.8,10.2,13.9,2,24,2s18.2,8.2,18.2,18.2C42.2,30.3,34.1,38.5,24,38.5z"/>
	<ellipse id="XMLID_7844_" class="st2" cx="24" cy="5.5" rx="6" ry="1.5"/>
	<ellipse id="XMLID_7843_" class="st3" cx="24" cy="45.5" rx="16" ry="1.5"/>
	<circle id="XMLID_7842_" class="st4" cx="24" cy="21.5" r="20"/>
	<path id="XMLID_7841_" class="st4" d="M16.5,29c0,0,2.3,2,7.5,2s7.5-2,7.5-2"/>
	<g id="XMLID_7839_">
		<path id="XMLID_7840_" class="st10" d="M20.2,32.3c0.2,0.7,0.8,1.2,1.5,1.3l1.5,0.2c0.4,0.1,0.8-0.3,0.8-0.7V31
			c-1.7,0-3.1-0.2-4.3-0.5L20.2,32.3z"/>
	</g>
	<g id="XMLID_7837_">
		<path id="XMLID_7838_" class="st10" d="M24,31v2.2c0,0.4,0.4,0.7,0.8,0.7l1.5-0.2c0.7-0.1,1.3-0.6,1.5-1.3l0.5-1.9
			C27.1,30.8,25.7,31,24,31z"/>
	</g>
	<circle id="XMLID_7836_" class="st61" cx="15" cy="20" r="7.5"/>
	<circle id="XMLID_7835_" class="st8" cx="15" cy="20" r="5.5"/>
	<path id="XMLID_7834_" class="st9" d="M15,14.5c-3,0-5.5,2.5-5.5,5.5c0,1.6,0.7,3,1.7,4l7.8-7.8C18,15.2,16.6,14.5,15,14.5z"/>
	<circle id="XMLID_7833_" class="st4" cx="15" cy="20" r="5.5"/>
	<circle id="XMLID_7832_" class="st61" cx="33" cy="20" r="7.5"/>
	<circle id="XMLID_7831_" class="st8" cx="33" cy="20" r="5.5"/>
	<path id="XMLID_7830_" class="st9" d="M33,14.5c-3,0-5.5,2.5-5.5,5.5c0,1.6,0.7,3,1.7,4l7.8-7.8C36,15.2,34.6,14.5,33,14.5z"/>
	<circle id="XMLID_7829_" class="st4" cx="33" cy="20" r="5.5"/>
	<line id="XMLID_7828_" class="st4" x1="40.5" y1="20" x2="45" y2="20"/>
	<line id="XMLID_7827_" class="st4" x1="7.5" y1="20" x2="3" y2="20"/>
	<line id="XMLID_7826_" class="st4" x1="25.5" y1="20" x2="22.5" y2="20"/>
	<g id="XMLID_7821_">
		<path id="XMLID_7825_" class="st62" d="M24,40.6c0.9-0.5,3.8-1.8,5.5-2.1c0.5-0.1,1.1,0.2,1.2,0.7c0.3,1.3,0.3,3.2,0,5.3
			c-0.1,0.7-0.9,1.1-1.5,0.8c-1.7-0.8-4.3-2-5.2-2.7V40.6z"/>
		<path id="XMLID_7824_" class="st62" d="M24,40.6c-0.9-0.5-3.8-1.8-5.5-2.1c-0.5-0.1-1.1,0.2-1.2,0.7c-0.3,1.3-0.3,3.2,0,5.3
			c0.1,0.7,0.9,1.1,1.5,0.8c1.7-0.8,4.3-2,5.2-2.7V40.6z"/>
		<line id="XMLID_7823_" class="st4" x1="20.2" y1="42" x2="27.8" y2="42"/>
		<path id="XMLID_7822_" class="st62" d="M25,43.5c0,0.3-0.2,0.5-0.5,0.5h-1c-0.3,0-0.5-0.2-0.5-0.5v-3c0-0.3,0.2-0.5,0.5-0.5h1
			c0.3,0,0.5,0.2,0.5,0.5V43.5z"/>
	</g>
</g>
</svg>
